<svg xmlns="http://www.w3.org/2000/svg" width="19.414" height="19.004" viewBox="0 0 19.414 19.004">
  <g id="COCO_Line_Home" data-name="COCO/Line/Home" transform="translate(-2.293 -2.5)">
    <path id="Vector" d="M16.29,6.719v4.918a6.226,6.226,0,0,1-4.777,6.07,10.93,10.93,0,0,1-5.027,0,6.226,6.226,0,0,1-4.777-6.07V6.719M18,8.23,11.828,2.014C10.5.671,9.828,0,9,0S7.5.671,6.172,2.014L0,8.23M10.875,17.8l.117-.245a3.634,3.634,0,0,0,.29-2.232l-.019-.1A2.274,2.274,0,0,0,9.64,13.448a2.389,2.389,0,0,0-1.278,0,2.274,2.274,0,0,0-1.623,1.775l-.019.1a3.634,3.634,0,0,0,.29,2.232l.117.245" transform="translate(3 3)" fill="none" stroke="#fff" stroke-linecap="round" stroke-width="1"/>
  </g>
</svg>
