<svg width="420" height="436" viewBox="0 0 420 436" fill="none" xmlns="http://www.w3.org/2000/svg">
<g clip-path="url(#clip0_989_4205)">
<path d="M91.9453 -0.962496C93.3629 -0.965988 94.7805 -0.972999 96.1981 -0.98321C100.08 -1.00105 103.96 -0.969173 107.842 -0.928985C112.033 -0.894373 116.223 -0.906133 120.414 -0.912203C127.671 -0.916394 134.926 -0.891337 142.183 -0.846301C152.674 -0.781229 163.164 -0.760443 173.656 -0.750397C190.678 -0.732896 207.699 -0.67968 224.721 -0.603976C241.255 -0.530521 257.788 -0.473905 274.321 -0.439913C275.85 -0.436761 275.85 -0.436761 277.41 -0.433544C282.525 -0.423104 287.639 -0.412994 292.753 -0.403049C335.169 -0.320142 377.584 -0.17926 420 -0.000460207C420.32 47.4574 420.567 94.9152 420.715 142.374C420.732 147.978 420.75 153.582 420.769 159.185C420.772 160.301 420.776 161.417 420.78 162.566C420.841 180.626 420.951 198.686 421.08 216.746C421.211 235.279 421.288 253.812 421.317 272.346C421.336 283.782 421.397 295.215 421.51 306.65C421.585 314.493 421.607 322.335 421.589 330.179C421.58 334.704 421.593 339.225 421.669 343.75C421.737 347.898 421.74 352.04 421.692 356.188C421.686 357.684 421.704 359.18 421.748 360.675C422.049 371.495 422.049 371.495 418.652 375.647C415.346 378.816 411.682 381.366 407.824 383.816C404.898 385.714 402.154 387.833 399.375 389.937C374.842 407.515 347.223 420.49 318 428C317.369 428.166 316.739 428.331 316.09 428.502C252.18 445.196 183.261 435.314 126.062 402.562C117.004 397.235 108.438 391.251 99.9997 385C99.3405 384.515 98.6813 384.03 98.0021 383.53C96.1394 382.155 94.286 380.768 92.4372 379.375C91.8824 378.961 91.3276 378.547 90.756 378.12C89.465 377.129 88.2259 376.07 86.9997 375C86.9997 374.34 86.9997 373.68 86.9997 373C86.1571 372.644 86.1571 372.644 85.2975 372.281C82.4738 370.706 80.5235 368.783 78.234 366.5C77.3446 365.613 76.4551 364.726 75.5387 363.812C74.6183 362.884 73.6979 361.956 72.7497 361C71.8138 360.071 70.8779 359.143 69.9137 358.187C69.0294 357.3 68.1451 356.413 67.234 355.5C66.0154 354.278 66.0154 354.278 64.7721 353.031C62.9997 351 62.9997 351 62.9997 349C62.3397 349 61.6797 349 60.9997 349C59.7697 347.725 59.7697 347.725 58.3825 345.914C57.6047 344.902 57.6047 344.902 56.8112 343.87C56.2546 343.129 55.6981 342.388 55.1247 341.625C54.5475 340.861 53.9703 340.097 53.3756 339.31C26.4795 303.357 7.81446 262.819 1.99966 218C1.89669 217.236 1.79373 216.473 1.68765 215.687C-1.5284 190.939 -1.11771 165.601 2.99966 141C3.15531 140.068 3.31097 139.137 3.47134 138.178C11.202 94.1933 31.4132 52.4105 60.652 18.7417C62.9652 16.1207 62.9652 16.1207 64.6911 13.6324C65.1229 13.0935 65.5547 12.5547 65.9997 11.9995C66.6597 11.9995 67.3197 11.9995 67.9997 11.9995C68.394 11.1392 68.394 11.1392 68.7963 10.2614C74.2322 0.0437899 81.0065 -1.15747 91.9453 -0.962496Z" fill="#1B706F"/>
</g>
<defs>
<clipPath id="clip0_989_4205">
<rect width="420" height="436" fill="white"/>
</clipPath>
</defs>
</svg>
